<svg xmlns="http://www.w3.org/2000/svg" viewBox="0 0 178.51 74.33"><defs><style>.cls-1{fill: none;}</style></defs><title>fall-logo</title><g id="Layer_2" data-name="Layer 2"><g id="Layer_2-2" data-name="Layer 2"><path class="cls-1" d="M.06,30.94V.06H178.57V74.4H.06V31l.28.25L15.22,46.13a3,3,0,0,1,.23.35l.28-.26,15-15a.36.36,0,0,0,.09-.5Q28.93,26.89,27,23.06l-.21-.36-7.17,7.17V.56H11.38V29.91l-.08,0L4.15,22.8C3.56,24,3,25.13,2.41,26.28Zm90.47-6.69.22.44q5.32,10.62,10.62,21.25a.52.52,0,0,0,.54.34h11.31l.41,0L90.53.06l-23.1,46.2.31,0H79.22a.41.41,0,0,0,.43-.28Q83,39.36,86.29,32.73C87.69,29.92,89.09,27.12,90.53,24.25ZM48.2,46.15V28.05H64.74V19.61H48.2V9.15H66.4V.72H37.91V46.15Zm97.69,0V37.73H128V.72H117.74V46.15ZM150.32.71V46.15h28.16V37.73H160.59V.71Zm-46.24,59,.16.43q2.34,6.92,4.69,13.81a.42.42,0,0,0,.48.35c.88,0,1.76,0,2.64,0a.4.4,0,0,0,.45-.34q2.35-7,4.74-14c0-.12.1-.25.14-.37-.15,4.88-.57,9.75-.4,14.65h5V53.45h-6.62c-1.54,4.81-3.07,9.61-4.64,14.49-.07-.19-.11-.3-.14-.4q-2.22-6.9-4.42-13.79a.39.39,0,0,0-.45-.33H99.45V74.31h5C104.61,69.44,104.19,64.6,104.08,59.75Zm55.07,14.58V53.44h-5V66.28a1,1,0,0,1-.27-.32q-3.48-6.12-7-12.24a.49.49,0,0,0-.5-.3h-4.69V74.31h5V61.47a.69.69,0,0,1,.23.26l2.16,3.79q2.43,4.28,4.87,8.53c.07.12.22.27.33.27ZM76.39,67c.8,0,1.56,0,2.33,0a.52.52,0,0,1,.57.34c1.11,2.26,2.25,4.51,3.37,6.76a.41.41,0,0,0,.43.29c1.61,0,3.21,0,4.82,0l.38,0-4.45-8.61.43-.23a5.62,5.62,0,0,0,2.88-3.35,7.91,7.91,0,0,0,.32-2.78,5.51,5.51,0,0,0-3.33-5,10.11,10.11,0,0,0-4.44-.88H71.37V74.31h5ZM15.44,74.33H21c.11,0,.27-.15.33-.27,1.06-2.12,2.12-4.26,3.18-6.39l.2-.39.21.39C26,69.78,27.06,71.9,28.11,74a.47.47,0,0,0,.48.31c1.7,0,3.4,0,5.09,0h.38c-.08-.16-.13-.27-.19-.37l-5.6-9.82a.6.6,0,0,1,0-.71Q31,58.61,33.71,53.8l.2-.38H28.52a.49.49,0,0,0-.52.31Q26.49,56.85,25,60l-.21.39c-.08-.17-.14-.28-.2-.39l-3.07-6.25a.41.41,0,0,0-.43-.29H15.88l-.27,0,.17.33,5.45,9.67a.6.6,0,0,1,0,.68Q18.42,69,15.64,74Zm109.8-20.9V74.31h14.37V70.45h-9.32v-5h7.88V61.71h-7.89v-4.4h9.34V53.43Zm-56,0H54.88V74.31H69.23V70.45H59.92v-5h7.87V61.71H59.92v-4.4h9.36ZM.48,74.31H14.84V70.45H5.52v-5H13.4V61.72H5.53V57.31h9.35V53.44H.48Zm40.29-7.07c1.06,0,2.07.05,3.07,0a18.86,18.86,0,0,0,3.1-.35,6.26,6.26,0,0,0,5.2-5.6,6.61,6.61,0,0,0-2.81-6.37,8.83,8.83,0,0,0-5.26-1.48H35.76V74.3h5ZM167.1,57.32v17h5v-17h6.25V53.45H160.94v3.87ZM90.9,53.44V74.3h5V53.44Z" transform="translate(-0.06 -0.06)"/><path d="M.06,30.94l2.35-4.66C3,25.13,3.56,24,4.15,22.8L11.3,30l.08,0V.56h8.26V29.87l7.17-7.17.21.36q1.9,3.82,3.83,7.64a.36.36,0,0,1-.09.5l-15,15-.28.26a3,3,0,0,0-.23-.35L.34,31.26.06,31Z" transform="translate(-0.06 -0.06)"/><path d="M90.53,24.25c-1.44,2.87-2.84,5.67-4.24,8.48Q83,39.36,79.65,46a.41.41,0,0,1-.43.28H67.74l-.31,0L90.53.06l23.1,46.2-.41,0H101.91a.52.52,0,0,1-.54-.34q-5.3-10.63-10.62-21.25Z" transform="translate(-0.06 -0.06)"/><path d="M48.2,46.15H37.91V.72H66.4V9.15H48.2V19.61H64.74v8.44H48.2Z" transform="translate(-0.06 -0.06)"/><path d="M145.89,46.15H117.74V.72H128v37h17.88Z" transform="translate(-0.06 -0.06)"/><path d="M150.32.71h10.27v37h17.89v8.42H150.32Z" transform="translate(-0.06 -0.06)"/><path d="M104.08,59.75c.11,4.85.53,9.69.36,14.56h-5V53.42h6.26a.39.39,0,0,1,.45.33q2.2,6.89,4.42,13.79c0,.1.07.21.14.4,1.57-4.88,3.1-9.68,4.64-14.49H122V74.31h-5c-.17-4.9.25-9.77.4-14.65,0,.12-.1.25-.14.37q-2.37,7-4.74,14a.4.4,0,0,1-.45.34c-.88,0-1.76,0-2.64,0a.42.42,0,0,1-.48-.35q-2.34-6.9-4.69-13.81Z" transform="translate(-0.06 -0.06)"/><path d="M159.15,74.33h-4.81c-.11,0-.26-.15-.33-.27q-2.44-4.26-4.87-8.53L147,61.73a.69.69,0,0,0-.23-.26V74.31h-5V53.42h4.69a.49.49,0,0,1,.5.3q3.47,6.12,7,12.24a1,1,0,0,0,.27.32V53.44h5Z" transform="translate(-0.06 -0.06)"/><path d="M76.39,67v7.36h-5V53.42H79.7a10.11,10.11,0,0,1,4.44.88,5.51,5.51,0,0,1,3.33,5,7.91,7.91,0,0,1-.32,2.78,5.62,5.62,0,0,1-2.88,3.35l-.43.23,4.45,8.61-.38,0c-1.61,0-3.21,0-4.82,0a.41.41,0,0,1-.43-.29c-1.12-2.25-2.26-4.5-3.37-6.76a.52.52,0,0,0-.57-.34C78,67,77.19,67,76.39,67Zm0-3.9c1.2,0,2.35,0,3.51,0a2.42,2.42,0,0,0,2.5-2.22,5,5,0,0,0,0-1.09,2.44,2.44,0,0,0-1.86-2.29,4.31,4.31,0,0,0-1-.11c-1,0-1.92,0-2.88,0l-.27,0Z" transform="translate(-0.06 -0.06)"/><path d="M15.44,74.33l.2-.38q2.79-4.9,5.59-9.82a.6.6,0,0,0,0-.68l-5.45-9.67-.17-.33.27,0H21a.41.41,0,0,1,.43.29L24.54,60c.06.11.12.22.2.39L25,60q1.53-3.1,3.05-6.23a.49.49,0,0,1,.52-.31h5.39l-.2.38Q31,58.61,28.27,63.43a.6.6,0,0,0,0,.71L33.87,74c.06.1.11.21.19.37h-.38c-1.69,0-3.39,0-5.09,0a.47.47,0,0,1-.48-.31C27.06,71.9,26,69.78,25,67.66l-.21-.39-.2.39c-1.06,2.13-2.12,4.27-3.18,6.39-.06.12-.22.27-.33.27Z" transform="translate(-0.06 -0.06)"/><path d="M125.24,53.43h14.38v3.88h-9.34v4.4h7.89v3.74h-7.88v5h9.32v3.86H125.24Z" transform="translate(-0.06 -0.06)"/><path d="M69.28,53.45v3.86H59.92v4.4h7.87v3.74H59.92v5h9.31v3.86H54.88V53.45Z" transform="translate(-0.06 -0.06)"/><path d="M.48,74.31V53.44h14.4v3.87H5.53v4.41H13.4v3.74H5.52v5h9.32v3.86Z" transform="translate(-0.06 -0.06)"/><path d="M40.77,67.24V74.3h-5V53.44h8.31a8.83,8.83,0,0,1,5.26,1.48,6.61,6.61,0,0,1,2.81,6.37,6.26,6.26,0,0,1-5.2,5.6,18.86,18.86,0,0,1-3.1.35C42.84,67.29,41.83,67.24,40.77,67.24Zm0-9.92v6H44a5.7,5.7,0,0,0,.72,0,2.38,2.38,0,0,0,2.25-1.81A4.94,4.94,0,0,0,47,59.87a2.72,2.72,0,0,0-2.71-2.54c-.72,0-1.45,0-2.17,0Z" transform="translate(-0.06 -0.06)"/><path d="M167.1,57.32h-6.16V53.45h17.44V57.3h-6.25v17h-5Z" transform="translate(-0.06 -0.06)"/><path d="M90.9,53.44h5V74.3h-5Z" transform="translate(-0.06 -0.06)"/><path class="cls-1" d="M76.4,63.05v-5.7l.27,0c1,0,1.92,0,2.88,0a4.31,4.31,0,0,1,1,.11,2.44,2.44,0,0,1,1.86,2.29,5,5,0,0,1,0,1.09A2.42,2.42,0,0,1,79.91,63C78.75,63.08,77.6,63.05,76.4,63.05Z" transform="translate(-0.06 -0.06)"/><path class="cls-1" d="M40.79,57.32h1.34c.72,0,1.45,0,2.17,0A2.72,2.72,0,0,1,47,59.87a4.94,4.94,0,0,1-.08,1.63,2.38,2.38,0,0,1-2.25,1.81,5.7,5.7,0,0,1-.72,0H40.79Z" transform="translate(-0.06 -0.06)"/></g></g></svg>
